<?xml version="1.0" encoding="utf-8"?>
<!-- Generator: Adobe Illustrator 16.0.3, SVG Export Plug-In . SVG Version: 6.00 Build 0)  -->
<!DOCTYPE svg PUBLIC "-//W3C//DTD SVG 1.1//EN" "http://www.w3.org/Graphics/SVG/1.1/DTD/svg11.dtd">
<svg version="1.1"
	 id="Layer_1" image-rendering="optimizeQuality" text-rendering="geometricPrecision" shape-rendering="geometricPrecision"
	 xmlns="http://www.w3.org/2000/svg" xmlns:xlink="http://www.w3.org/1999/xlink" x="0px" y="0px" width="1024px" height="1024px"
	 viewBox="0 0 1024 1024" enable-background="new 0 0 1024 1024" xml:space="preserve">
<title>stopwatch2 icon</title>
<desc>stopwatch2 icon from the IconExperience.com O-Collection. Copyright by INCORS GmbH (www.incors.com).</desc>
<path id="curve4" fill="#636363" d="M812.899,339.1V339C794.2,315.3,772.7,293.8,749,275.1h-0.101L800,224l64,64L812.899,339.1z"/>
<path id="curve3" fill="#636363" d="M576,198.4l-0.2-0.1c-21.1-3.5-42.399-5.3-63.8-5.3s-42.7,1.8-63.8,5.3l-0.2,0.1V160h-32
	c-17.6,0-32-14.4-32-32V64c0-17.601,14.4-32,32-32h192c17.601,0,32,14.399,32,32v64c0,17.6-14.399,32-32,32h-32V198.4z"/>
<path id="curve2" fill="#636363" d="M512,192c212.101,0,384,171.899,384,384c0,212.1-171.899,384-384,384
	c-212.1,0-384-171.9-384-384C128,363.9,299.9,192,512,192z M512,288C352.9,288,224,416.9,224,576c0,159.1,128.9,288,288,288
	c159.101,0,288-128.9,288-288C800,416.9,671.101,288,512,288z"/>
<path id="curve1" fill="#A1C057" d="M512,320c141.4,0,256,114.6,256,256c0,23.699-3.2,46.699-9.3,68.5L606,556.4
	C596.9,512.8,558.3,480,512,480V320z"/>
<path id="curve0" fill="#8FCAE7" d="M512,640c11.7,0,22.601-3.101,32-8.601l172,99.3c6.4-8.399,12.3-17.3,17.7-26.699
	c5.4-9.4,10.199-19,14.3-28.7L576,576c0-35.301-28.7-64-64-64s-64,28.699-64,64C448,611.3,476.7,640,512,640z"/>
</svg>
